<?xml version="1.0" encoding="UTF-8"?>
<svg width="159px" height="305px" viewBox="0 0 159 305" version="1.1" xmlns="http://www.w3.org/2000/svg" xmlns:xlink="http://www.w3.org/1999/xlink">
    <!-- Generator: Sketch 51.3 (57544) - http://www.bohemiancoding.com/sketch -->
    <title>Group 4</title>
    <desc>Created with Sketch.</desc>
    <defs></defs>
    <g id="Page-1" stroke="none" stroke-width="1" fill="none" fill-rule="evenodd">
        <g id="Process-Infographic-2-Copy" transform="translate(-715.000000, -531.000000)" fill="#95D0F1">
            <g id="Group-7" transform="translate(0.000000, 385.000000)">
                <g id="Group-4" transform="translate(715.000000, 148.000000)">
                    <g id="Group-2">
                        <circle id="Oval-2-Copy" stroke="#DAEFFC" stroke-width="4" cx="134.5" cy="150.5" r="22.5"></circle>
                        <circle id="Oval-Copy-7" cx="81" cy="152" r="5"></circle>
                        <circle id="Oval-Copy-8" cx="52" cy="152" r="5"></circle>
                        <circle id="Oval-Copy-11" cx="23" cy="152" r="5"></circle>
                        <circle id="Oval-2-Copy-2" stroke="#DAEFFC" stroke-width="4" cx="98.5" cy="22.5" r="22.5"></circle>
                        <circle id="Oval-Copy-5" cx="53" cy="48" r="5"></circle>
                        <circle id="Oval-Copy-6" cx="29" cy="63" r="5"></circle>
                        <circle id="Oval-Copy-10" cx="5" cy="77" r="5"></circle>
                        <circle id="Oval-2-Copy-2" stroke="#DAEFFC" stroke-width="4" transform="translate(98.500000, 278.500000) scale(1, -1) translate(-98.500000, -278.500000) " cx="98.5" cy="278.5" r="22.5"></circle>
                        <circle id="Oval-Copy-5" transform="translate(53.000000, 253.000000) scale(1, -1) translate(-53.000000, -253.000000) " cx="53" cy="253" r="5"></circle>
                        <circle id="Oval-Copy-6" transform="translate(29.000000, 238.000000) scale(1, -1) translate(-29.000000, -238.000000) " cx="29" cy="238" r="5"></circle>
                        <circle id="Oval-Copy-10" transform="translate(5.000000, 224.000000) scale(1, -1) translate(-5.000000, -224.000000) " cx="5" cy="224" r="5"></circle>
                    </g>
                </g>
            </g>
        </g>
    </g>
</svg>