<?xml version="1.0" encoding="UTF-8"?>
<svg width="100%" height="100%"  viewBox="0 0 271 271" version="1.1" xmlns="http://www.w3.org/2000/svg" xmlns:xlink="http://www.w3.org/1999/xlink">
    <!-- Generator: Sketch 51.3 (57544) - http://www.bohemiancoding.com/sketch -->
    <title>Group 73</title>
    <desc>Created with Sketch.</desc>
    <defs>
        <path d="M1.94896552,12.4975862 C1.66344828,12.8110345 1.52068966,13.23 1.51137931,13.7451724 L1.51137931,13.8568966 C1.68517241,23.6048276 46.7937931,65.2965517 52.7337931,58.707931 C58.2206897,52.6251724 61.5568966,44.5655172 61.5568966,35.73 C61.5568966,16.7710345 46.1886207,1.39965517 27.2265517,1.39965517 C17.2241379,1.39965517 8.22413793,5.6762069 1.94896552,12.4975862 Z" id="path-1"></path>
        <path d="M0.344482759,35.73 C0.344482759,44.5655172 3.6837931,52.6251724 9.16758621,58.707931 C15.4489655,65.6782759 65.5758621,18.6144828 59.9524138,12.4975862 C53.6772414,5.6762069 44.6741379,1.39965517 34.6748276,1.39965517 C15.7158621,1.39965517 0.344482759,16.7710345 0.344482759,35.73 Z" id="path-3"></path>
        <path d="M3.09724138,11.16 C3.09724138,16.9758621 33.8027586,43.9324138 39.2772414,40.382069 L65.0544828,20.492069 C65.0544828,20.492069 19.44,0.633103448 13.6272414,0.633103448 C7.81448276,0.633103448 3.09724138,5.34413793 3.09724138,11.16 Z" id="path-5"></path>
        <polygon id="path-7" points="3.07862069 1.57965517 152.301724 1.57965517 152.301724 82.6013793 3.07862069 82.6013793"></polygon>
        <path d="M1.46172414,24.4024138 C1.46172414,37.0458621 11.7093103,47.2934483 24.3465517,47.2934483 C36.99,47.2934483 47.2344828,37.0458621 47.2344828,24.4024138 C47.2344828,11.7651724 36.99,1.51758621 24.3465517,1.51758621 C11.7093103,1.51758621 1.46172414,11.7651724 1.46172414,24.4024138 Z" id="path-9"></path>
        <path d="M2.62862069,24.4024138 C2.62862069,37.0458621 12.8762069,47.2934483 25.5134483,47.2934483 C38.1568966,47.2934483 48.4013793,37.0458621 48.4013793,24.4024138 C48.4013793,11.7651724 38.1568966,1.51758621 25.5134483,1.51758621 C12.8762069,1.51758621 2.62862069,11.7651724 2.62862069,24.4024138 Z" id="path-11"></path>
        <path d="M0.204827586,11.4796552 C0.204827586,17.8013793 5.32862069,22.922069 11.6472414,22.922069 C17.9689655,22.922069 23.0927586,17.8013793 23.0927586,11.4796552 C23.0927586,5.15793103 17.9689655,0.0372413793 11.6472414,0.0372413793 C5.32862069,0.0372413793 0.204827586,5.15793103 0.204827586,11.4796552 Z" id="path-13"></path>
    </defs>
    <g id="Symbols" stroke="none" stroke-width="1" fill="none" fill-rule="evenodd">
        <g id="Infographic/Yellow" transform="translate(3.000000, 2.000000)">
            <g id="Group-73">
                <g id="Group-5" transform="translate(0.000000, 0.343552)">
                    <path d="M132.068483,264.896552 C205.008828,264.896552 264.135724,205.766552 264.135724,132.82931 C264.135724,59.8889655 205.008828,0.758965517 132.068483,0.758965517 C59.1281379,0.758965517 0.00124137931,59.8889655 0.00124137931,132.82931 C0.00124137931,205.766552 59.1281379,264.896552 132.068483,264.896552" id="Fill-1" fill="#FCC30A"></path>
                    <path d="M132.068483,264.896552 C205.008828,264.896552 264.135724,205.766552 264.135724,132.82931 C264.135724,59.8889655 205.008828,0.758965517 132.068483,0.758965517 C59.1281379,0.758965517 0.00124137931,59.8889655 0.00124137931,132.82931 C0.00124137931,205.766552 59.1281379,264.896552 132.068483,264.896552 Z" id="Stroke-3" stroke="#FEF5B3" stroke-width="6"></path>
                </g>
                <polygon id="Fill-6" fill="#FFE9A6" points="79.9969655 158.934897 77.7066207 169.461793 108.374897 169.461793 108.374897 158.934897"></polygon>
                <polygon id="Fill-7" fill="#FFFCF3" points="80.4522414 158.934897 89.6074138 193.265241 204.043966 193.265241 194.891897 158.934897"></polygon>
                <polygon id="Fill-8" fill="#FFEFBF" points="88.2338276 161.680517 90.5241724 170.83569 99.6793448 170.83569 97.389 161.680517"></polygon>
                <polygon id="Fill-9" fill="#FFEFBF" points="134.01 161.680517 136.297241 170.83569 145.452414 170.83569 143.165172 161.680517"></polygon>
                <polygon id="Fill-10" fill="#FFEFBF" points="111.12331 161.680517 113.410552 170.83569 122.565724 170.83569 120.275379 161.680517"></polygon>
                <polygon id="Fill-11" fill="#FFEFBF" points="156.89669 161.680517 159.187034 170.83569 168.339103 170.83569 166.051862 161.680517"></polygon>
                <polygon id="Fill-12" fill="#FFEFBF" points="179.786172 161.680517 182.073414 170.83569 191.228586 170.83569 188.938241 161.680517"></polygon>
                <polygon id="Fill-13" fill="#FFEFBF" points="99.6799655 161.680517 101.967207 170.83569 111.122379 170.83569 108.832034 161.680517"></polygon>
                <polygon id="Fill-14" fill="#FFEFBF" points="145.453345 161.680517 147.74369 170.83569 156.895759 170.83569 154.608517 161.680517"></polygon>
                <polygon id="Fill-15" fill="#FFEFBF" points="122.566655 161.680517 124.853897 170.83569 134.009069 170.83569 131.721828 161.680517"></polygon>
                <polygon id="Fill-16" fill="#FFEFBF" points="168.340034 161.680517 170.630379 170.83569 179.785552 170.83569 177.495207 161.680517"></polygon>
                <polygon id="Fill-17" fill="#FFEFBF" points="96.0182069 172.207724 98.3054483 181.362897 107.460621 181.362897 105.170276 172.207724"></polygon>
                <polygon id="Fill-18" fill="#FFEFBF" points="141.791586 172.207724 144.078828 181.362897 153.234 181.362897 150.946759 172.207724"></polygon>
                <polygon id="Fill-19" fill="#FFEFBF" points="118.904897 172.207724 121.192138 181.362897 130.34731 181.362897 128.060069 172.207724"></polygon>
                <polygon id="Fill-20" fill="#FFEFBF" points="164.678276 172.207724 166.968621 181.362897 176.12069 181.362897 173.833448 172.207724"></polygon>
                <polygon id="Fill-21" fill="#FFEFBF" points="107.461552 172.207724 109.748793 181.362897 118.903966 181.362897 116.613621 172.207724"></polygon>
                <polygon id="Fill-22" fill="#FFEFBF" points="153.234931 172.207724 155.525276 181.362897 164.677345 181.362897 162.390103 172.207724"></polygon>
                <polygon id="Fill-23" fill="#FFEFBF" points="130.348241 172.207724 132.635483 181.362897 141.790655 181.362897 139.503414 172.207724"></polygon>
                <polygon id="Fill-24" fill="#FFEFBF" points="176.121621 172.207724 178.411966 181.362897 187.567138 181.362897 185.276793 172.207724"></polygon>
                <polygon id="Fill-25" fill="#FFEFBF" points="122.566655 182.279655 124.853897 191.434828 166.685276 191.434828 164.394931 182.279655"></polygon>
                <polygon id="Fill-26" fill="#FFFCF3" points="53.4444828 151.154241 213.656897 151.154241 213.656897 59.6056207 53.4444828 59.6056207"></polygon>
                <g id="Group-29" transform="translate(21.724138, 156.619414)">
                    <mask id="mask-2" fill="white">
                        <use xlink:href="#path-1"></use>
                    </mask>
                    <g id="Clip-28"></g>
                    <polygon id="Fill-27" fill="#FFE94E" mask="url(#mask-2)" points="-0.778965517 61.6996552 63.8441379 61.6996552 63.8441379 -0.890689655 -0.778965517 -0.890689655"></polygon>
                </g>
                <g id="Group-32" transform="translate(183.103448, 156.619414)">
                    <mask id="mask-4" fill="white">
                        <use xlink:href="#path-3"></use>
                    </mask>
                    <g id="Clip-31"></g>
                    <polygon id="Fill-30" fill="#FFE94E" mask="url(#mask-4)" points="-1.94586207 61.6996552 62.6772414 61.6996552 62.6772414 -0.890689655 -1.94586207 -0.890689655"></polygon>
                </g>
                <g id="Group-35" transform="translate(155.172414, 175.240103)">
                    <mask id="mask-6" fill="white">
                        <use xlink:href="#path-5"></use>
                    </mask>
                    <g id="Clip-34"></g>
                    <polygon id="Fill-33" fill="#FFE94E" mask="url(#mask-6)" points="0.81 42.992069 67.3448276 42.992069 67.3448276 -1.65724138 0.81 -1.65724138"></polygon>
                </g>
                <g id="Group-54" transform="translate(55.862069, 63.515966)">
                    <mask id="mask-8" fill="white">
                        <use xlink:href="#path-7"></use>
                    </mask>
                    <g id="Clip-37"></g>
                    <polygon id="Fill-36" fill="#FFEFBF" mask="url(#mask-8)" points="3.07862069 82.6013793 152.301724 82.6013793 152.301724 1.57965517 3.07862069 1.57965517"></polygon>
                    <polygon id="Fill-38" fill="#FFE9A6" mask="url(#mask-8)" points="3.07862069 82.6013793 37.4089655 82.6013793 37.4089655 1.57965517 3.07862069 1.57965517"></polygon>
                    <polygon id="Fill-39" fill="#FFD309" mask="url(#mask-8)" points="62.127931 21.2617241 96.4582759 21.2617241 96.4582759 12.1096552 62.127931 12.1096552"></polygon>
                    <polygon id="Fill-40" fill="#FFD309" mask="url(#mask-8)" points="62.127931 34.9944828 96.4582759 34.9944828 96.4582759 30.4168966 62.127931 30.4168966"></polygon>
                    <polygon id="Fill-41" fill="#FFD309" mask="url(#mask-8)" points="108.816207 44.1527586 143.149655 44.1527586 143.149655 39.5751724 108.816207 39.5751724"></polygon>
                    <polygon id="Fill-42" fill="#FFD309" mask="url(#mask-8)" points="81.3506897 44.1527586 104.238621 44.1527586 104.238621 39.5751724 81.3506897 39.5751724"></polygon>
                    <polygon id="Fill-43" fill="#FFD309" mask="url(#mask-8)" points="101.035862 34.9944828 123.926897 34.9944828 123.926897 30.4168966 101.035862 30.4168966"></polygon>
                    <polygon id="Fill-44" fill="#FFD309" mask="url(#mask-8)" points="128.498276 34.9944828 143.149655 34.9944828 143.149655 30.4168966 128.498276 30.4168966"></polygon>
                    <polygon id="Fill-45" fill="#FFD309" mask="url(#mask-8)" points="62.127931 44.1527586 76.7762069 44.1527586 76.7762069 39.5751724 62.127931 39.5751724"></polygon>
                    <polyline id="Stroke-46" stroke="#FDC40A" stroke-width="1.475" mask="url(#mask-8)" points="52.9718276 10.7348276 46.5632069 16.6841379 52.9718276 22.6365517"></polyline>
                    <polyline id="Stroke-47" stroke="#FDC40A" stroke-width="1.475" mask="url(#mask-8)" points="105.612828 10.7348276 112.021448 16.6841379 105.612828 22.6365517"></polyline>
                    <polygon id="Fill-48" fill="#FFD309" mask="url(#mask-8)" points="62.127931 64.7472414 96.4582759 64.7472414 96.4582759 55.5951724 62.127931 55.5951724"></polygon>
                    <polygon id="Fill-49" fill="#FFD309" mask="url(#mask-8)" points="62.127931 78.48 96.4582759 78.48 96.4582759 73.9024138 62.127931 73.9024138"></polygon>
                    <polygon id="Fill-50" fill="#FFD309" mask="url(#mask-8)" points="101.035862 78.48 123.926897 78.48 123.926897 73.9024138 101.035862 73.9024138"></polygon>
                    <polygon id="Fill-51" fill="#FFD309" mask="url(#mask-8)" points="128.498276 78.48 143.149655 78.48 143.149655 73.9024138 128.498276 73.9024138"></polygon>
                    <polyline id="Stroke-52" stroke="#FDC40A" stroke-width="1.475" mask="url(#mask-8)" points="52.9718276 54.2209655 46.5632069 60.1702759 52.9718276 66.1226897"></polyline>
                    <polyline id="Stroke-53" stroke="#FDC40A" stroke-width="1.475" mask="url(#mask-8)" points="105.612828 54.2209655 112.021448 60.1702759 105.612828 66.1226897"></polyline>
                </g>
                <g id="Group-57" transform="translate(189.310345, 103.860793)">
                    <mask id="mask-10" fill="white">
                        <use xlink:href="#path-9"></use>
                    </mask>
                    <g id="Clip-56"></g>
                    <polygon id="Fill-55" fill="#FFDD02" mask="url(#mask-10)" points="-0.82862069 49.5806897 49.5248276 49.5806897 49.5248276 -0.772758621 -0.82862069 -0.772758621"></polygon>
                </g>
                <g id="Group-60" transform="translate(27.931034, 103.860793)">
                    <mask id="mask-12" fill="white">
                        <use xlink:href="#path-11"></use>
                    </mask>
                    <g id="Clip-59"></g>
                    <polygon id="Fill-58" fill="#FFDD02" mask="url(#mask-12)" points="0.338275862 49.5806897 50.6917241 49.5806897 50.6917241 -0.772758621 0.338275862 -0.772758621"></polygon>
                </g>
                <g id="Group-63" transform="translate(136.551724, 162.826310)">
                    <mask id="mask-14" fill="white">
                        <use xlink:href="#path-13"></use>
                    </mask>
                    <g id="Clip-62"></g>
                    <polygon id="Fill-61" fill="#FFDD02" mask="url(#mask-14)" points="-2.08241379 25.2124138 25.3831034 25.2124138 25.3831034 -2.25310345 -2.08241379 -2.25310345"></polygon>
                </g>
                <path d="M185.624379,179.943069 C191.477483,184.511345 195.232655,186.44169 196.889897,185.74031 C199.375759,184.688241 202.175069,170.213759 218.471276,165.785138" id="Stroke-64" stroke="#FFDD02" stroke-width="0.885"></path>
                <g id="Group-72" transform="translate(18.620690, 103.860793)">
                    <path d="M34.7825172,47.4731379 C47.7859655,47.4731379 58.3283793,36.9338276 58.3283793,23.9272759 C58.3283793,10.926931 47.7859655,0.384517241 34.7825172,0.384517241 C21.779069,0.384517241 11.2366552,10.926931 11.2366552,23.9272759 C11.2366552,36.9338276 21.779069,47.4731379 34.7825172,47.4731379" id="Fill-66" fill="#FFD308"></path>
                    <path d="M2.27575862,49.9583793 L34.7812759,49.617 L34.7812759,19.0945862 C34.7812759,19.0945862 18.4478276,6.43872414 15.5088621,10.3304483 C8.08231034,20.1838966 2.27575862,49.9583793 2.27575862,49.9583793" id="Fill-68" fill="#FAB900"></path>
                    <path d="M58.3271379,23.9275862 C58.3271379,10.9272414 47.7847241,0.384827586 34.7812759,0.384827586 C21.7778276,0.384827586 11.2385172,10.9272414 11.2385172,23.9275862 C11.2385172,36.9310345 58.3271379,36.9310345 58.3271379,23.9275862" id="Fill-70" fill="#FAB900"></path>
                </g>
            </g>
        </g>
    </g>
</svg>