<?xml version="1.0" encoding="UTF-8"?>
<svg width="100%" height="100%" viewBox="0 0 270 270" version="1.1" xmlns="http://www.w3.org/2000/svg" xmlns:xlink="http://www.w3.org/1999/xlink">
    <!-- Generator: Sketch 51.3 (57544) - http://www.bohemiancoding.com/sketch -->
    <title>Group 55</title>
    <desc>Created with Sketch.</desc>
    <defs>
        <path d="M0.978863417,12.6570757 C0.978863417,16.0738047 13.1867771,26.534633 28.9415219,33.9628434 C32.3706415,26.2961125 38.2004546,19.9335003 45.4737815,15.8383818 C29.8863109,9.50984396 15.6927914,2.18695434 11.4489848,2.18695434 C5.66563668,2.18695434 0.978863417,6.87682527 0.978863417,12.6570757 Z" id="path-1"></path>
        <path d="M1.75018301,12.9048892 C1.75018301,19.1931574 6.84275092,24.288823 13.1310191,24.288823 C19.4161896,24.288823 24.5118551,19.1931574 24.5118551,12.9048892 C24.5118551,6.61971874 19.4161896,1.52405317 13.1310191,1.52405317 C6.84275092,1.52405317 1.75018301,6.61971874 1.75018301,12.9048892 Z" id="path-3"></path>
        <path d="M1.28243498,25.1004123 C13.1929725,31.7882797 21.246912,44.5382855 21.246912,59.1716741 C21.246912,60.7700713 21.1508842,62.3436872 20.9650241,63.8925217 C20.9309497,64.1713119 20.8937777,64.4501021 20.853508,64.7288923 L24.728692,66.0392063 L57.1086265,33.6561741 L24.9176498,1.46519746 L1.28243498,25.1004123 Z" id="path-5"></path>
        <path d="M0.858054325,13.5832788 C-4.7332383,19.6640031 45.1175496,66.4759777 51.3686457,59.5402967 C56.8205432,53.4874514 60.1412445,45.4768792 60.1412445,36.6887921 C60.1412445,17.830183 44.8542477,2.54318628 25.9987363,2.54318628 C16.0490233,2.54318628 7.09985745,6.79628588 0.858054325,13.5832788 Z" id="path-7"></path>
        <path d="M1.7811597,36.6887921 C1.7811597,45.4768792 5.09876324,53.4874514 10.5568561,59.5402967 C16.8079522,66.4759777 66.6556425,19.6640031 61.0643498,13.5832788 C54.8225467,6.79628588 45.8702832,2.54318628 35.9267656,2.54318628 C17.0681564,2.54318628 1.7811597,17.830183 1.7811597,36.6887921 Z" id="path-9"></path>
        <path d="M2.86844153,25.6115276 C2.86844153,38.1818686 13.0628704,48.3762974 25.6332113,48.3762974 C38.2035523,48.3762974 48.3948835,38.1818686 48.3948835,25.6115276 C48.3948835,13.0411867 38.2035523,2.84985552 25.6332113,2.84985552 C13.0628704,2.84985552 2.86844153,13.0411867 2.86844153,25.6115276 Z" id="path-11"></path>
        <path d="M8.42256213,2.59274899 C2.72594876,5.25054903 0.263301869,12.0220536 2.91490657,17.7186669 C5.57270661,23.4152803 15.8879445,18.6076979 13.2301445,12.9079869 C11.4334964,9.04829127 16.098586,2.54938162 14.0912965,1.55812753 C13.6638181,1.3505837 13.1960701,1.26384897 12.7128338,1.26384897 C11.3312734,1.26384897 9.7762435,1.9608245 8.42256213,2.59274899 Z" id="path-13"></path>
        <path d="M5.88866885,2.68258139 C4.53498748,3.34858024 6.20772876,6.51130033 6.89850896,9.6864111 C3.07908303,11.5233288 0.442966673,15.4294895 0.442966673,19.9489886 C0.442966673,26.2341591 5.53863225,31.3329224 11.8238027,31.3329224 C18.1089732,31.3329224 23.2077365,26.2341591 23.2077365,19.9489886 C23.2077365,15.6896937 20.8658987,11.9724908 17.399607,10.024057 C16.3866692,7.33528029 14.3638914,5.02751686 11.5574032,3.71720285 C10.2006242,3.08527837 8.6455943,2.38520516 7.26713157,2.38520516 C6.78079753,2.38520516 6.31614718,2.47503757 5.88866885,2.68258139 Z" id="path-15"></path>
        <path d="M1.51166249,25.6115276 C1.51166249,38.1818686 11.699896,48.3762974 24.2733346,48.3762974 C36.8436756,48.3762974 47.0381044,38.1818686 47.0381044,25.6115276 C47.0381044,13.0411867 36.8436756,2.84985552 24.2733346,2.84985552 C11.699896,2.84985552 1.51166249,13.0411867 1.51166249,25.6115276 Z" id="path-17"></path>
    </defs>
    <g id="Symbols" stroke="none" stroke-width="1" fill="none" fill-rule="evenodd">
        <g id="Infographic/Blue" transform="translate(3.000000, 0.000000)">
            <g id="Group-55">
                <g id="Group-5" transform="translate(0.000000, 0.342912)">
                    <path d="M131.822545,266.399538 C204.627061,266.399538 263.643851,207.379649 263.643851,134.578232 C263.643851,61.773716 204.627061,2.75382778 131.822545,2.75382778 C59.0180297,2.75382778 0.00123906762,61.773716 0.00123906762,134.578232 C0.00123906762,207.379649 59.0180297,266.399538 131.822545,266.399538" id="Fill-1" fill="#2AA0DA"></path>
                    <path d="M131.822545,266.399538 C204.627061,266.399538 263.643851,207.379649 263.643851,134.578232 C263.643851,61.773716 204.627061,2.75382778 131.822545,2.75382778 C59.0180297,2.75382778 0.00123906762,61.773716 0.00123906762,134.578232 C0.00123906762,207.379649 59.0180297,266.399538 131.822545,266.399538 Z" id="Stroke-3" stroke="#DAEFFC" stroke-width="6"></path>
                </g>
                <g id="Group-8" transform="translate(151.785783, 145.933357)">
                    <mask id="mask-2" fill="white">
                        <use xlink:href="#path-1"></use>
                    </mask>
                    <g id="Clip-7"></g>
                    <polygon id="Fill-6" fill="#41C4F1" mask="url(#mask-2)" points="-1.29792333 36.2396301 47.7505683 36.2396301 47.7505683 -0.0898324022 -1.29792333 -0.0898324022"></polygon>
                </g>
                <g id="Group-11" transform="translate(83.637064, 186.203055)">
                    <mask id="mask-4" fill="white">
                        <use xlink:href="#path-3"></use>
                    </mask>
                    <g id="Clip-10"></g>
                    <polygon id="Fill-9" fill="#90DDF7" mask="url(#mask-4)" points="-0.526603737 26.5656097 26.7886419 26.5656097 26.7886419 -0.749635908 -0.526603737 -0.749635908"></polygon>
                </g>
                <g id="Group-14" transform="translate(65.051050, 136.640350)">
                    <mask id="mask-6" fill="white">
                        <use xlink:href="#path-5"></use>
                    </mask>
                    <g id="Clip-13"></g>
                    <polygon id="Fill-12" fill="#DAF0FF" mask="url(#mask-6)" points="-0.994351763 68.3159931 59.3854132 68.3159931 59.3854132 -0.811589289 -0.994351763 -0.811589289"></polygon>
                </g>
                <polygon id="Fill-15" fill="#DAF0FF" points="52.152356 131.275187 97.6787979 131.275187 97.6787979 62.987073 52.152356 62.987073"></polygon>
                <polygon id="Fill-16" fill="#DAF0FF" points="109.059634 131.275187 154.586076 131.275187 154.586076 62.987073 109.059634 62.987073"></polygon>
                <polygon id="Fill-17" fill="#DAF0FF" points="165.966912 131.275187 211.493354 131.275187 211.493354 62.987073 165.966912 62.987073"></polygon>
                <g id="Group-20" transform="translate(21.683683, 158.324033)">
                    <mask id="mask-8" fill="white">
                        <use xlink:href="#path-7"></use>
                    </mask>
                    <g id="Clip-19"></g>
                    <polygon id="Fill-18" fill="#41C4F1" mask="url(#mask-8)" points="-1.85550376 62.5171566 62.4180312 62.5171566 62.4180312 0.269497207 -1.85550376 0.269497207"></polygon>
                </g>
                <polygon id="Fill-21" fill="#8DD2FF" points="170.520485 124.447924 204.662994 124.447924 204.662994 115.343875 170.520485 115.343875"></polygon>
                <g id="Group-24" transform="translate(179.664804, 158.324033)">
                    <mask id="mask-10" fill="white">
                        <use xlink:href="#path-9"></use>
                    </mask>
                    <g id="Clip-23"></g>
                    <polygon id="Fill-22" fill="#41C4F1" mask="url(#mask-10)" points="-0.495627047 62.5171566 63.7779079 62.5171566 63.7779079 0.269497207 -0.495627047 0.269497207"></polygon>
                </g>
                <g id="Group-27" transform="translate(185.860143, 105.663659)">
                    <mask id="mask-12" fill="white">
                        <use xlink:href="#path-11"></use>
                    </mask>
                    <g id="Clip-26"></g>
                    <polygon id="Fill-25" fill="#90DDF7" mask="url(#mask-12)" points="0.591654787 50.6530842 50.6685725 50.6530842 50.6685725 0.576166442 0.591654787 0.576166442"></polygon>
                </g>
                <g id="Group-30" transform="translate(83.637064, 186.203055)">
                    <mask id="mask-14" fill="white">
                        <use xlink:href="#path-13"></use>
                    </mask>
                    <g id="Clip-29"></g>
                    <polygon id="Fill-28" fill="#90DDF7" mask="url(#mask-14)" points="-4.91785937 6.30313697 14.7461437 -2.8659634 23.4722774 15.8470553 3.80827432 25.0161557"></polygon>
                </g>
                <g id="Group-33" transform="translate(133.199769, 121.152005)">
                    <mask id="mask-16" fill="white">
                        <use xlink:href="#path-15"></use>
                    </mask>
                    <g id="Clip-32"></g>
                    <polygon id="Fill-31" fill="#90DDF7" mask="url(#mask-16)" points="-1.83382007 33.6066114 25.4814255 33.6066114 25.4814255 0.108418416 -1.83382007 0.108418416"></polygon>
                </g>
                <polygon id="Fill-34" fill="#A7DCFF" points="86.7508411 150.752091 102.849427 166.847579 106.390063 163.306944 90.2945745 147.211455"></polygon>
                <polygon id="Fill-35" fill="#A7DCFF" points="81.7437688 155.759163 105.887001 179.902396 109.427637 176.36176 85.2844045 152.218527"></polygon>
                <polygon id="Fill-36" fill="#8DD2FF" points="57.6135465 103.052324 92.2145097 103.052324 92.2145097 68.4513612 57.6135465 68.4513612"></polygon>
                <polygon id="Fill-37" fill="#8DD2FF" points="109.059634 97.1326789 154.586076 97.1326789 154.586076 62.9901707 109.059634 62.9901707"></polygon>
                <polygon id="Fill-38" fill="#8DD2FF" points="170.520485 74.3679091 193.282158 74.3679091 193.282158 67.5406465 170.520485 67.5406465"></polygon>
                <polygon id="Fill-39" fill="#A7DCFF" points="170.520485 83.4750561 204.662994 83.4750561 204.662994 78.9214826 170.520485 78.9214826"></polygon>
                <polygon id="Fill-40" fill="#A7DCFF" points="113.613207 106.236728 147.755716 106.236728 147.755716 101.683155 113.613207 101.683155"></polygon>
                <polygon id="Fill-41" fill="#A7DCFF" points="57.6135465 112.156374 92.2145097 112.156374 92.2145097 107.6028 57.6135465 107.6028"></polygon>
                <polygon id="Fill-42" fill="#A7DCFF" points="170.520485 90.3023186 204.662994 90.3023186 204.662994 85.7487451 170.520485 85.7487451"></polygon>
                <polygon id="Fill-43" fill="#A7DCFF" points="113.613207 113.063991 136.37488 113.063991 136.37488 108.510417 113.613207 108.510417"></polygon>
                <polygon id="Fill-44" fill="#A7DCFF" points="57.6135465 118.983636 80.3752186 118.983636 80.3752186 114.430063 57.6135465 114.430063"></polygon>
                <g id="Group-47" transform="translate(27.879021, 105.663659)">
                    <mask id="mask-18" fill="white">
                        <use xlink:href="#path-17"></use>
                    </mask>
                    <g id="Clip-46"></g>
                    <polygon id="Fill-45" fill="#90DDF7" mask="url(#mask-18)" points="-0.765124254 50.6530842 49.3117935 50.6530842 49.3117935 0.576166442 -0.765124254 0.576166442"></polygon>
                </g>
                <g id="Group-54" transform="translate(18.586014, 105.663659)">
                    <path d="M33.5081056,49.4236193 C46.4873389,49.4236193 57.0101206,38.9039353 57.0101206,25.9216043 C57.0101206,12.9454687 46.4873389,2.42268696 33.5081056,2.42268696 C20.5288723,2.42268696 10.0060905,12.9454687 10.0060905,25.9216043 C10.0060905,38.9039353 20.5288723,49.4236193 33.5081056,49.4236193" id="Fill-48" fill="#90DDF7"></path>
                    <path d="M1.06188095,51.9042327 L33.5068665,51.5634891 L33.5068665,21.0979141 C33.5068665,21.0979141 17.2038343,8.46561973 14.2703417,12.3500967 C6.85761973,22.1851959 1.06188095,51.9042327 1.06188095,51.9042327" id="Fill-50" fill="#20BAEE"></path>
                    <path d="M57.0088815,25.9219141 C57.0088815,12.9457785 46.4860998,2.42299673 33.5068665,2.42299673 C20.5276332,2.42299673 10.0079491,12.9457785 10.0079491,25.9219141 C10.0079491,38.9011474 57.0088815,38.9011474 57.0088815,25.9219141" id="Fill-52" fill="#20BAEE"></path>
                </g>
            </g>
        </g>
    </g>
</svg>