<?xml version="1.0" encoding="UTF-8"?>
<svg width="100%" height="100%" viewBox="0 0 271 271" version="1.1" xmlns="http://www.w3.org/2000/svg" xmlns:xlink="http://www.w3.org/1999/xlink">
    <!-- Generator: Sketch 51.3 (57544) - http://www.bohemiancoding.com/sketch -->
    <title>Group 49</title>
    <desc>Created with Sketch.</desc>
    <defs>
        <path d="M0.955862069,13.86 C-4.64275862,19.9458621 45.2575862,66.8048276 51.5141379,59.8655172 C56.9731034,53.8075862 60.2968966,45.7882759 60.2968966,36.99 C60.2968966,18.1148276 44.9937931,2.81172414 26.1186207,2.81172414 C16.1627586,2.81172414 7.2,7.06655172 0.955862069,13.86 Z" id="path-1"></path>
        <path d="M1.74103448,36.99 C1.74103448,45.7882759 5.06482759,53.8075862 10.5268966,59.8655172 C16.7834483,66.8048276 66.6806897,19.9458621 61.082069,13.86 C54.837931,7.06655172 45.8751724,2.81172414 35.9193103,2.81172414 C17.0410345,2.81172414 1.74103448,18.1148276 1.74103448,36.99 Z" id="path-3"></path>
        <path d="M2.82413793,22.8444828 C2.82413793,35.4289655 13.0282759,45.63 25.6096552,45.63 C38.1972414,45.63 48.3951724,35.4289655 48.3951724,22.8444828 C48.3951724,10.26 38.1972414,0.0589655172 25.6096552,0.0589655172 C13.0282759,0.0589655172 2.82413793,10.26 2.82413793,22.8444828 Z" id="path-5"></path>
        <path d="M1.60137931,22.8444828 C1.60137931,35.4289655 11.8024138,45.63 24.3868966,45.63 C36.9713793,45.63 47.1724138,35.4289655 47.1724138,22.8444828 C47.1724138,10.26 36.9713793,0.0589655172 24.3868966,0.0589655172 C11.8024138,0.0589655172 1.60137931,10.26 1.60137931,22.8444828 Z" id="path-7"></path>
        <path d="M0.962068966,12.9444828 C0.962068966,16.3644828 13.1803448,26.8355172 28.9551724,34.2744828 C32.3875862,26.5965517 38.222069,20.2282759 45.4996552,16.1286207 C29.8986207,9.79448276 15.6910345,2.46413793 11.4455172,2.46413793 C5.65448276,2.46413793 0.962068966,7.15655172 0.962068966,12.9444828 Z" id="path-9"></path>
        <path d="M5.89344828,2.98241379 C4.54034483,3.64655172 6.2162069,6.81517241 6.90517241,9.99310345 C3.08172414,11.8303448 0.440689655,15.7406897 0.440689655,20.2655172 C0.440689655,26.5562069 5.54586207,31.6582759 11.8334483,31.6582759 C18.1272414,31.6582759 23.2262069,26.5562069 23.2262069,20.2655172 C23.2262069,16.0013793 20.8831034,12.2834483 17.4165517,10.3313793 C16.4017241,7.64068966 14.3751724,5.32862069 11.5665517,4.01896552 C10.2103448,3.38275862 8.65241379,2.68448276 7.27448276,2.68448276 C6.78413793,2.68448276 6.32172414,2.77137931 5.89344828,2.98241379 Z" id="path-11"></path>
        <path d="M1.7937931,13.1586207 C1.7937931,19.4524138 6.89275862,24.5513793 13.1865517,24.5513793 C19.4772414,24.5513793 24.5793103,19.4524138 24.5793103,13.1586207 C24.5793103,6.86482759 19.4772414,1.76586207 13.1865517,1.76586207 C6.89275862,1.76586207 1.7937931,6.86482759 1.7937931,13.1586207 Z" id="path-13"></path>
        <path d="M1.34068966,25.407931 C13.2672414,32.102069 21.3237931,44.8696552 21.3237931,59.5148276 C21.3237931,61.1162069 21.2275862,62.6927586 21.0413793,64.2382759 C21.0072414,64.5175862 20.9731034,64.7968966 20.9327586,65.0762069 L24.8089655,66.3889655 L57.2244828,33.9734483 L24.9982759,1.74724138 L1.34068966,25.407931 Z" id="path-15"></path>
        <path d="M8.47241379,2.83655172 C2.77137931,5.49310345 0.301034483,12.2741379 2.96068966,17.9782759 C5.62034483,23.6793103 15.9455172,18.8658621 13.2858621,13.1617241 C11.4858621,9.29482759 16.1565517,2.79 14.1424138,1.8 C13.7203448,1.58896552 13.2517241,1.50206897 12.7675862,1.50206897 C11.3865517,1.50206897 9.82862069,2.20344828 8.47241379,2.83655172 Z" id="path-17"></path>
    </defs>
    <g id="Symbols" stroke="none" stroke-width="1" fill="none" fill-rule="evenodd">
        <g id="Infographic/Green" transform="translate(3.000000, 2.000000)">
            <g id="Group-49">
                <g id="Group-5" transform="translate(0.000000, 0.343552)">
                    <path d="M132.068172,264.896552 C205.008517,264.896552 264.135414,205.766552 264.135414,132.82931 C264.135414,59.8889655 205.008517,0.758965517 132.068172,0.758965517 C59.1278276,0.758965517 0.000931034483,59.8889655 0.000931034483,132.82931 C0.000931034483,205.766552 59.1278276,264.896552 132.068172,264.896552" id="Fill-1" fill="#81B128"></path>
                    <path d="M132.068172,264.896552 C205.008517,264.896552 264.135414,205.766552 264.135414,132.82931 C264.135414,59.8889655 205.008517,0.758965517 132.068172,0.758965517 C59.1278276,0.758965517 0.000931034483,59.8889655 0.000931034483,132.82931 C0.000931034483,205.766552 59.1278276,264.896552 132.068172,264.896552 Z" id="Stroke-3" stroke="#DEE9BD" stroke-width="6"></path>
                </g>
                <polygon id="Fill-6" fill="#DFEABD" points="52.317931 181.934241 211.819655 181.934241 211.819655 55.2452759 52.317931 55.2452759"></polygon>
                <path d="M63.7113103,73.9289655 L200.424414,73.9289655" id="Stroke-7" stroke="#C0D450" stroke-width="0.734" stroke-linecap="square"></path>
                <path d="M63.7113103,95.8033103 L200.424414,95.8033103" id="Stroke-8" stroke="#C0D450" stroke-width="0.734" stroke-linecap="square"></path>
                <path d="M63.7113103,117.677345 L200.424414,117.677345" id="Stroke-9" stroke="#C0D450" stroke-width="0.734" stroke-linecap="square"></path>
                <path d="M63.7113103,139.55169 L200.424414,139.55169" id="Stroke-10" stroke="#C0D450" stroke-width="0.734" stroke-linecap="square"></path>
                <path d="M63.7113103,161.426034 L200.424414,161.426034" id="Stroke-11" stroke="#C0D450" stroke-width="0.734" stroke-linecap="square"></path>
                <polyline id="Stroke-12" stroke="#95C11E" stroke-width="4" points="66.9013448 161.173724 118.300655 109.774414 137.945483 129.422345 197.541 69.8268276"></polyline>
                <g id="Group-15" transform="translate(21.724138, 150.412517)">
                    <mask id="mask-2" fill="white">
                        <use xlink:href="#path-1"></use>
                    </mask>
                    <g id="Clip-14"></g>
                    <polygon id="Fill-13" fill="#659D2F" mask="url(#mask-2)" points="-1.76275862 62.8417241 62.5748276 62.8417241 62.5748276 0.530689655 -1.76275862 0.530689655"></polygon>
                </g>
                <g id="Group-18" transform="translate(180.000000, 150.412517)">
                    <mask id="mask-4" fill="white">
                        <use xlink:href="#path-3"></use>
                    </mask>
                    <g id="Clip-17"></g>
                    <polygon id="Fill-16" fill="#659D2F" mask="url(#mask-4)" points="-0.536896552 62.8417241 63.8006897 62.8417241 63.8006897 0.530689655 -0.536896552 0.530689655"></polygon>
                </g>
                <g id="Group-21" transform="translate(186.206897, 100.757345)">
                    <mask id="mask-6" fill="white">
                        <use xlink:href="#path-5"></use>
                    </mask>
                    <g id="Clip-20"></g>
                    <polygon id="Fill-19" fill="#B2CF65" mask="url(#mask-6)" points="0.546206897 47.907931 50.6762069 47.907931 50.6762069 -2.22206897 0.546206897 -2.22206897"></polygon>
                </g>
                <g id="Group-24" transform="translate(27.931034, 100.757345)">
                    <mask id="mask-8" fill="white">
                        <use xlink:href="#path-7"></use>
                    </mask>
                    <g id="Clip-23"></g>
                    <polygon id="Fill-22" fill="#B2CF65" mask="url(#mask-8)" points="-0.676551724 47.907931 49.4534483 47.907931 49.4534483 -2.22206897 -0.676551724 -2.22206897"></polygon>
                </g>
                <g id="Group-27" transform="translate(152.068966, 137.998724)">
                    <mask id="mask-10" fill="white">
                        <use xlink:href="#path-9"></use>
                    </mask>
                    <g id="Clip-26"></g>
                    <polygon id="Fill-25" fill="#659D2F" mask="url(#mask-10)" points="-1.31586207 36.5524138 47.7806897 36.5524138 47.7806897 0.186206897 -1.31586207 0.186206897"></polygon>
                </g>
                <g id="Group-30" transform="translate(133.448276, 113.171138)">
                    <mask id="mask-12" fill="white">
                        <use xlink:href="#path-11"></use>
                    </mask>
                    <g id="Clip-29"></g>
                    <polygon id="Fill-28" fill="#B2CF65" mask="url(#mask-12)" points="-1.83413793 33.9362069 25.5072414 33.9362069 25.5072414 0.403448276 -1.83413793 0.403448276"></polygon>
                </g>
                <g id="Group-33" transform="translate(83.793103, 178.343552)">
                    <mask id="mask-14" fill="white">
                        <use xlink:href="#path-13"></use>
                    </mask>
                    <g id="Clip-32"></g>
                    <polygon id="Fill-31" fill="#B2CF65" mask="url(#mask-14)" points="-0.487241379 26.8324138 26.8541379 26.8324138 26.8541379 -0.508965517 -0.487241379 -0.508965517"></polygon>
                </g>
                <g id="Group-36" transform="translate(65.172414, 128.688379)">
                    <mask id="mask-16" fill="white">
                        <use xlink:href="#path-15"></use>
                    </mask>
                    <g id="Clip-35"></g>
                    <polygon id="Fill-34" fill="#C9DC8F" mask="url(#mask-16)" points="-0.937241379 68.6668966 59.5055172 68.6668966 59.5055172 -0.530689655 -0.937241379 -0.530689655"></polygon>
                </g>
                <g id="Group-39" transform="translate(83.793103, 178.343552)">
                    <mask id="mask-18" fill="white">
                        <use xlink:href="#path-17"></use>
                    </mask>
                    <g id="Clip-38"></g>
                    <polygon id="Fill-37" fill="#B2CF65" mask="url(#mask-18)" points="-4.88141379 6.54951724 14.8006552 -2.62737931 23.5368621 16.1050345 3.8547931 25.281931"></polygon>
                </g>
                <polygon id="Fill-40" fill="#95C11E" points="86.9517931 143.095207 103.064897 159.20831 106.609034 155.664172 90.495931 139.551069"></polygon>
                <polygon id="Fill-41" fill="#95C11E" points="81.9409655 148.108828 106.107517 172.278483 109.651655 168.734345 85.4851034 144.56469"></polygon>
                <g id="Group-48" transform="translate(18.620690, 97.653897)">
                    <path d="M33.9281379,48.6006207 C46.9315862,48.6006207 57.474,38.0613103 57.474,25.0547586 C57.474,12.0544138 46.9315862,1.512 33.9281379,1.512 C20.9246897,1.512 10.3822759,12.0544138 10.3822759,25.0547586 C10.3822759,38.0613103 20.9246897,48.6006207 33.9281379,48.6006207" id="Fill-42" fill="#B2CF65"></path>
                    <path d="M1.42137931,51.0855517 L33.9268966,50.7441724 L33.9268966,20.2217586 C33.9268966,20.2217586 17.5934483,7.56589655 14.6544828,11.4576207 C7.22793103,21.311069 1.42137931,51.0855517 1.42137931,51.0855517" id="Fill-44" fill="#95C11E"></path>
                    <path d="M57.4727586,25.0547586 C57.4727586,12.0544138 46.9303448,1.512 33.9268966,1.512 C20.9234483,1.512 10.3841379,12.0544138 10.3841379,25.0547586 C10.3841379,38.0582069 57.4727586,38.0582069 57.4727586,25.0547586" id="Fill-46" fill="#95C11E"></path>
                </g>
            </g>
        </g>
    </g>
</svg>