<?xml version="1.0" encoding="UTF-8"?>
<svg width="100%" height="100%" viewBox="0 0 128 128" version="1.1" xmlns="http://www.w3.org/2000/svg" xmlns:xlink="http://www.w3.org/1999/xlink">
    <!-- Generator: Sketch 51.3 (57544) - http://www.bohemiancoding.com/sketch -->
    <title>Group 55 Copy</title>
    <desc>Created with Sketch.</desc>
    <defs>
        <path d="M15.9517891,0.44546851 C9.32278719,0.44546851 3.95028249,5.92473118 3.95028249,12.6835637 C3.95028249,15.6436252 4.98079096,18.359447 6.69679849,20.4761905 C6.69679849,20.5038402 6.69679849,20.53149 6.69679849,20.5591398 C6.69679849,23.3149002 4.53483992,26.3855607 0.212429379,29.7741935 C7.26177024,29.6927803 11.7032015,27.9907834 13.5397363,24.6728111 C14.3186441,24.8356375 15.126177,24.9201229 15.9517891,24.9201229 C22.580791,24.9201229 27.9532957,19.4408602 27.9532957,12.6835637 C27.9532957,5.92473118 22.580791,0.44546851 15.9517891,0.44546851 Z" id="path-1"></path>
        <path d="M0.2055,1.5585 C0.2055,2.2185 0.7395,2.7555 1.3995,2.7555 C2.0595,2.7555 2.595,2.2185 2.595,1.5585 C2.595,0.9 2.0595,0.3645 1.3995,0.3645 C0.7395,0.3645 0.2055,0.9 0.2055,1.5585 Z" id="path-3"></path>
        <path d="M0.486,1.5585 C0.486,2.2185 1.02,2.7555 1.68,2.7555 C2.34,2.7555 2.8755,2.2185 2.8755,1.5585 C2.8755,0.9 2.34,0.3645 1.68,0.3645 C1.02,0.3645 0.486,0.9 0.486,1.5585 Z" id="path-5"></path>
        <path d="M0.015,1.5585 C0.015,2.2185 0.549,2.7555 1.209,2.7555 C1.869,2.7555 2.403,2.2185 2.403,1.5585 C2.403,0.9 1.869,0.3645 1.209,0.3645 C0.549,0.3645 0.015,0.9 0.015,1.5585 Z" id="path-7"></path>
    </defs>
    <g id="Symbols" stroke="none" stroke-width="1" fill="none" fill-rule="evenodd">
        <g id="Infographic/Grey" transform="translate(3.000000, 3.000000)">
            <g id="Group-55-Copy">
                <g id="Group-43">
                    <path d="M121.990769,61.3113391 C121.990769,27.8129615 94.7182906,0.659054635 61.0762882,0.659054635 C27.4342857,0.659054635 0.161807082,27.8129615 0.161807082,61.3113391 C0.161807082,94.8139963 27.4342857,121.967903 61.0762882,121.967903 C94.7182906,121.967903 121.990769,94.8139963 121.990769,61.3113391 Z" id="Fill-1" fill="#D9D9D9"></path>
                    <path d="M61.0762882,121.967903 C94.7182906,121.967903 121.990769,94.8139963 121.990769,61.3113391 C121.990769,27.8129615 94.7182906,0.659054635 61.0762882,0.659054635 C27.4342857,0.659054635 0.161807082,27.8129615 0.161807082,61.3113391 C0.161807082,94.8139963 27.4342857,121.967903 61.0762882,121.967903 Z" id="Stroke-3" stroke="#EFEFF0" stroke-width="6"></path>
                    <g id="Group-23" transform="translate(14.000000, 33.000000)">
                        <path d="M12.7131038,19.8304361 C17.9986227,19.8304361 22.2833602,15.5410532 22.2833602,10.2498039 C22.2833602,4.96007016 17.9986227,0.670687246 12.7131038,0.670687246 C7.42758486,0.670687246 3.14284737,4.96007016 3.14284737,10.2498039 C3.14284737,15.5410532 7.42758486,19.8304361 12.7131038,19.8304361" id="Fill-5" fill="#B5B5B5"></path>
                        <path d="M47.6267497,47.3253806 C50.2808645,47.3253806 52.4338315,45.171595 52.4338315,42.5130871 C52.4338315,39.8560947 50.2808645,37.7007935 47.6267497,37.7007935 C44.9726349,37.7007935 42.8196679,39.8560947 42.8196679,42.5130871 C42.8196679,45.171595 44.9726349,47.3253806 47.6267497,47.3253806" id="Fill-7" fill="#6F6F6E"></path>
                        <path d="M19.9986716,42.724828 C14.0272918,41.4092151 3.76814652,38.9431989 1.9437265,37.1819752 L0.373665446,50.6927735 L24.6740317,50.7715891 C24.6740317,48.2889003 24.3273162,45.8425879 23.6747643,43.5069204 C22.4150818,43.2477386 21.1796239,42.9855254 19.9986716,42.724828" id="Fill-9" fill="#B5B5B5"></path>
                        <path d="M70.9915897,35.1630854 L50.6746667,40.467976 C50.4944957,40.7150323 50.102359,41.0424198 49.6996239,41.3637446 C49.5618462,41.4061838 49.4149841,41.4304347 49.26358,41.4304347 C48.0069255,41.4304347 47.769221,41.6502087 47.4088791,41.983659 C46.7760098,42.571744 46.0220171,43.1446722 44.414105,43.1446722 C43.573812,43.1446722 42.8924933,42.4626148 42.8924933,41.6214107 C42.8924933,40.7817224 43.573812,40.099665 44.414105,40.099665 C44.9652161,40.099665 45.0227497,40.0466161 45.3437265,39.7495422 C46.0886349,39.0583908 47.00463,38.3854275 49.26358,38.3854275 C49.5391355,38.3854275 49.7950085,38.464243 50.0175726,38.5930761 C51.233348,37.0425324 47.3498315,36.4195867 43.1241416,38.3960373 C40.912127,39.4297331 39.3223834,38.8886343 38.5562784,39.640413 C32.7590134,38.5566997 24.3288303,35.5617101 17.4505397,32.6318948 C17.2325177,32.5394382 17.0160098,32.4469815 16.8025299,32.3545248 C16.6889768,32.306023 16.5784518,32.2575211 16.4664127,32.2090193 C16.2453626,32.1120156 16.0227985,32.0165275 15.8047766,31.9195238 C15.7532991,31.8967886 15.7033358,31.875569 15.6518584,31.8528338 C15.165851,31.6376068 14.691956,31.4254111 14.2301734,31.2147312 C14.1544713,31.1798705 14.0772552,31.1450098 14.0030672,31.1116648 C13.813812,31.0237552 13.6306129,30.9388769 13.4458999,30.852483 C13.3247766,30.7979184 13.2051673,30.7418381 13.087072,30.6857578 C12.9174994,30.6069423 12.7509548,30.5266111 12.5844103,30.4477956 C12.4557167,30.3871683 12.3285372,30.326541 12.2028718,30.2659136 C12.0469255,30.1916452 11.8940073,30.1173767 11.7426032,30.0431082 C11.6108816,29.9794496 11.482188,29.9157909 11.3534945,29.8521322 C11.2126886,29.7824108 11.0733968,29.714205 10.9371331,29.6459993 C10.7948132,29.5747622 10.6570354,29.5035251 10.5192576,29.4338037 C10.4041905,29.374692 10.2845812,29.3155804 10.1725421,29.2579844 C9.93635165,29.1352141 9.70621734,29.0154752 9.48516728,28.8972519 C9.39886691,28.8502657 9.31862271,28.8063109 9.23383639,28.7608404 C9.09000244,28.6835406 8.94768254,28.6062408 8.80990476,28.5304566 C8.72209035,28.4804391 8.63881807,28.4334529 8.5525177,28.384951 C8.4283663,28.3152296 8.30724298,28.2455082 8.18914774,28.1773025 C8.10890354,28.1303163 8.03017338,28.0848458 7.95295726,28.0393753 C7.83789011,27.9711696 7.72736508,27.9044795 7.61986813,27.8393052 C7.55173626,27.796866 7.4836044,27.7544269 7.41850061,27.7135035 C7.30646154,27.643782 7.20199267,27.5755763 7.09903785,27.5088863 C7.04907448,27.4755412 6.99608303,27.4421962 6.9476337,27.4088512 C6.80228571,27.3118475 6.66602198,27.2163594 6.54489866,27.1269341 C5.74851282,28.0196714 4.40404396,30.6023953 4.004337,32.9941431 C3.78025885,34.3340068 3.98011233,34.9099664 4.06944078,35.0069701 C4.10123565,35.0342524 4.14211477,35.0630504 4.18753602,35.0918483 C4.20116239,35.1009424 4.21781685,35.1115522 4.23447131,35.1206463 C4.26778022,35.1418659 4.30260317,35.1630854 4.3434823,35.184305 C4.36316484,35.1964305 4.38587546,35.2085559 4.40707204,35.2206814 C4.44643712,35.241901 4.48883028,35.2631205 4.53425153,35.2858558 C4.55999023,35.2979812 4.5842149,35.3101067 4.6099536,35.3222322 C4.66143101,35.3464831 4.71442247,35.370734 4.770442,35.3965006 C4.79466667,35.4071104 4.81737729,35.4177202 4.843116,35.4298457 C5.0111746,35.5025984 5.19891575,35.5798983 5.40785348,35.6602295 C5.43813431,35.6723549 5.47144322,35.6844804 5.5032381,35.6966059 C5.58045421,35.7254038 5.65918437,35.7557175 5.74094261,35.7845155 C5.77879365,35.7996723 5.81815873,35.8133135 5.85752381,35.8269546 C5.93928205,35.8572683 6.02406838,35.8860662 6.11036874,35.9178956 C6.14973382,35.9315367 6.18758486,35.9451779 6.22846398,35.958819 C6.32536264,35.9921641 6.42528938,36.0270248 6.5282442,36.0603698 C6.56155311,36.0724952 6.59334799,36.083105 6.62817094,36.0952305 C6.90675458,36.1876872 7.20350672,36.2846909 7.51842735,36.3832103 C7.54719414,36.3923044 7.57747497,36.4013985 7.60624176,36.4104926 C7.73644933,36.4499003 7.86817094,36.4923394 8.00443468,36.5332629 C8.04379976,36.5453883 8.08316484,36.5575138 8.12404396,36.5696393 C8.25576557,36.6105627 8.3920293,36.6499705 8.52980708,36.6924096 C8.56765812,36.7030194 8.60399512,36.7136292 8.64033211,36.7242389 C8.80082051,36.7727408 8.96282295,36.819727 9.12936752,36.8682288 C9.14450794,36.8727759 9.15813431,36.8773229 9.17327473,36.88187 C9.55481319,36.9909992 9.95149206,37.1046754 10.3617973,37.2183516 C10.3754237,37.2228987 10.387536,37.22593 10.4011624,37.2289614 C10.5919316,37.2820103 10.7857289,37.3365749 10.9825543,37.3896238 C11.005265,37.3956865 11.0294896,37.4032649 11.0537143,37.4093277 C11.2444835,37.4608609 11.4367668,37.5123941 11.6320781,37.565443 C11.6547888,37.5715057 11.6774994,37.5775685 11.70021,37.5836312 C12.5874383,37.8215934 13.5276581,38.0656184 14.508757,38.3111591 C14.508757,38.3111591 14.508757,38.3111591 14.508757,38.3111591 C21.9290745,40.1709021 31.649221,42.174635 38.1717118,42.8976158 C38.7637021,45.8046958 41.3375726,47.9994048 44.414105,47.9994048 C47.3891966,47.9994048 49.8873651,45.9441387 50.5838242,43.1780172 C55.4378413,43.1765015 62.2010647,42.6232772 68.1451917,41.8760455 C68.8295385,39.416092 69.7909548,37.1683341 70.9915897,35.1630854" id="Fill-11" fill="#B5B5B5"></path>
                        <path d="M92.7345885,50.6924704 L89.9018168,26.3142249 C76.4298755,26.3142249 68.4327082,37.2862542 68.4327082,50.7728016 L92.7345885,50.6924704 Z" id="Fill-13" fill="#6F6F6E"></path>
                        <path d="M80.3317118,19.8304361 C85.6172308,19.8304361 89.9019683,15.5410532 89.9019683,10.2498039 C89.9019683,4.96007016 85.6172308,0.670687246 80.3317118,0.670687246 C75.0461929,0.670687246 70.7614554,4.96007016 70.7614554,10.2498039 C70.7614554,15.5410532 75.0461929,19.8304361 80.3317118,19.8304361" id="Fill-15" fill="#6F6F6E"></path>
                        <path d="M83.5445079,41.7309946 C84.7799658,41.3960287 85.7837753,40.3880995 86.0502466,39.0452043 C86.4242149,37.158179 85.1993553,35.3242025 83.3143736,34.9498288 C83.0857534,34.9043584 82.8586471,34.8831388 82.6330549,34.8831388 C81.1962295,34.8831388 79.8956679,35.7773918 79.3839219,37.1278653 C79.6746178,37.0490498 79.9774261,37.0081264 80.2878046,37.0081264 C80.5118828,37.0081264 80.7405031,37.0293459 80.9691233,37.0748164 C82.854105,37.4491901 84.0789646,39.2831666 83.7049963,41.1701919 C83.6656313,41.3641993 83.6126398,41.552144 83.5445079,41.7309946" id="Fill-17" fill="#FFDC00"></path>
                        <path d="M80.295072,43.9767821 C81.7318974,43.9767821 83.0324591,43.0825292 83.5442051,41.7305399 C83.2535092,41.8093554 82.9507009,41.8517946 82.6403223,41.8517946 C82.4162442,41.8517946 82.1876239,41.8290593 81.9590037,41.7835888 C80.074022,41.4092151 78.8491624,39.5752387 79.2231306,37.6882133 C79.2624957,37.4942059 79.3154872,37.3077769 79.383619,37.1289263 C78.1481612,37.4638923 77.1443516,38.4718215 76.8778803,39.8132009 C76.5039121,41.7017419 77.7287717,43.5342027 79.6137534,43.9100921 C79.8423736,43.9555626 80.0709939,43.9767821 80.295072,43.9767821" id="Fill-19" fill="#0CBAEE"></path>
                        <path d="M82.6406252,41.8514914 C82.9510037,41.8514914 83.253812,41.810568 83.5445079,41.7317525 C83.6126398,41.5513862 83.6656313,41.3649572 83.7049963,41.1709498 C84.0789646,39.2839244 82.854105,37.449948 80.9691233,37.0755743 C80.7405031,37.0301038 80.5118828,37.0073685 80.2878046,37.0073685 C79.9774261,37.0073685 79.6746178,37.0498077 79.3839219,37.1286232 C79.31579,37.3074738 79.2612845,37.4939028 79.2234335,37.6894259 C78.8494652,39.5764512 80.0743248,41.408912 81.9593065,41.7848014 C82.1879267,41.8302719 82.416547,41.8514914 82.6406252,41.8514914" id="Fill-21" fill="#94C01F"></path>
                    </g>
                    <g id="Group-26" transform="translate(40.000000, 20.000000)">
                        <mask id="mask-2" fill="white">
                            <use xlink:href="#path-1"></use>
                        </mask>
                        <g id="Clip-25"></g>
                        <polygon id="Fill-24" fill="#B5B5B5" mask="url(#mask-2)" points="-0.266666667 30.2642089 28.4338983 30.2642089 28.4338983 -0.0430107527 -0.266666667 -0.0430107527"></polygon>
                    </g>
                    <g id="Group-29" transform="translate(50.000000, 32.000000)">
                        <mask id="mask-4" fill="white">
                            <use xlink:href="#path-3"></use>
                        </mask>
                        <g id="Clip-28"></g>
                        <polygon id="Fill-27" fill="#F5F5F5" mask="url(#mask-4)" points="-0.273 3.2325 3.0735 3.2325 3.0735 -0.114 -0.273 -0.114"></polygon>
                    </g>
                    <g id="Group-32" transform="translate(54.000000, 32.000000)">
                        <mask id="mask-6" fill="white">
                            <use xlink:href="#path-5"></use>
                        </mask>
                        <g id="Clip-31"></g>
                        <polygon id="Fill-30" fill="#F5F5F5" mask="url(#mask-6)" points="0.006 3.2325 3.3525 3.2325 3.3525 -0.114 0.006 -0.114"></polygon>
                    </g>
                    <g id="Group-35" transform="translate(60.000000, 32.000000)">
                        <mask id="mask-8" fill="white">
                            <use xlink:href="#path-7"></use>
                        </mask>
                        <g id="Clip-34"></g>
                        <polygon id="Fill-33" fill="#F5F5F5" mask="url(#mask-8)" points="-0.4635 3.2325 2.883 3.2325 2.883 -0.114 -0.4635 -0.114"></polygon>
                    </g>
                    <g id="Group-42" transform="translate(13.000000, 34.000000)">
                        <path d="M51.66135,40.0128414 L51.66135,43.8393241 C51.66135,43.8393241 56.50185,42.6953241 59.95335,42.3782207 C65.09685,41.9048414 69.00885,41.4754621 69.00885,41.4754621 L71.83335,34.6782207 L51.66135,40.0128414 Z" id="Fill-36" fill="#6F6F6E"></path>
                        <path d="M0,21.2265103 L13.1805,22.9804414 L13.1805,9.78044138 C13.1805,9.78044138 6.375,4.1894069 5.3655,5.99188966 C4.3575,7.79437241 0,21.2265103 0,21.2265103" id="Fill-38" fill="#9FA09F"></path>
                        <path d="M23.5761,9.78074483 C23.5761,4.48405517 19.3311,0.190262069 14.0946,0.190262069 C8.8596,0.190262069 4.6146,4.48405517 4.6146,9.78074483 C4.6146,15.0774345 23.5761,15.0774345 23.5761,9.78074483" id="Fill-40" fill="#9FA09F"></path>
                    </g>
                </g>
            </g>
        </g>
    </g>
</svg>